<svg width="75" height="54" viewBox="0 0 75 54" fill="none" xmlns="http://www.w3.org/2000/svg">
<path d="M42.5 48.0943V49.566H49V53H43.5H27V51.5283V49.566H33.5V46.1321V43.6792L20.5 37.3019L2 27L5.5 25L9 23L12.5 21L14.5 19.6415V17.6792V15.717V9.83019V7.37736L14 5.90566L13.5 4.92453L12.5 3.9434L11 2.96226L9 1.49057L12 1H14.5L16.5 1.49057L18 2.4717L19.5 3.9434L20.5 5.41509L21 6.39623L21.5 9V9.33962V11.3019V14.7358V16.6981L24 15.2264L30 11.7925L33.5 9.83019V7.37736V5.41509V3.9434H32H30H28V1H48V1.98113V3.9434H46.5H42.5V4.92453V5.90566V8.84906V10.3208L45.5 11.7925L48.5 13.2642L51.5 14.7358L54.5 16.2075V13.7547V11.7925V9.83019V8.35849L55 5.90566L55.7309 4.75463L57 2.96226L58.5 1.98113L60 1.49057L61.5 1H64L67 1.49057L66 2.5L64.5 3.5L64 3.9434L63 4.92453L62 6.39623L61.5 8V9.33962V11.7925V14.7358V17V18.5L66 21.5L70.5 24.5L74 27L42.5 43.6792V48.0943Z" stroke="black"/>
<path d="M34 39.2642V14.2453L11.5 27L34 39.2642Z" stroke="black"/>
</svg>
