<svg width="307" height="47" viewBox="0 0 307 47" fill="#C1A240" xmlns="http://www.w3.org/2000/svg">
<path d="M38.75 22.3438V24.5C38.75 27.9583 38.2812 31.0625 37.3438 33.8125C36.4062 36.5625 35.0833 38.9062 33.375 40.8438C31.6667 42.7604 29.625 44.2292 27.25 45.25C24.8958 46.2708 22.2812 46.7812 19.4062 46.7812C16.5521 46.7812 13.9375 46.2708 11.5625 45.25C9.20833 44.2292 7.16667 42.7604 5.4375 40.8438C3.70833 38.9062 2.36458 36.5625 1.40625 33.8125C0.46875 31.0625 0 27.9583 0 24.5V22.3438C0 18.8646 0.46875 15.7604 1.40625 13.0312C2.34375 10.2812 3.66667 7.9375 5.375 6C7.10417 4.0625 9.14583 2.58333 11.5 1.5625C13.875 0.541667 16.4896 0.03125 19.3438 0.03125C22.2188 0.03125 24.8333 0.541667 27.1875 1.5625C29.5625 2.58333 31.6042 4.0625 33.3125 6C35.0417 7.9375 36.375 10.2812 37.3125 13.0312C38.2708 15.7604 38.75 18.8646 38.75 22.3438ZM29.2812 24.5V22.2812C29.2812 19.8646 29.0625 17.7396 28.625 15.9062C28.1875 14.0729 27.5417 12.5312 26.6875 11.2812C25.8333 10.0312 24.7917 9.09375 23.5625 8.46875C22.3333 7.82292 20.9271 7.5 19.3438 7.5C17.7604 7.5 16.3542 7.82292 15.125 8.46875C13.9167 9.09375 12.8854 10.0312 12.0312 11.2812C11.1979 12.5312 10.5625 14.0729 10.125 15.9062C9.6875 17.7396 9.46875 19.8646 9.46875 22.2812V24.5C9.46875 26.8958 9.6875 29.0208 10.125 30.875C10.5625 32.7083 11.2083 34.2604 12.0625 35.5312C12.9167 36.7812 13.9583 37.7292 15.1875 38.375C16.4167 39.0208 17.8229 39.3438 19.4062 39.3438C20.9896 39.3438 22.3958 39.0208 23.625 38.375C24.8542 37.7292 25.8854 36.7812 26.7188 35.5312C27.5521 34.2604 28.1875 32.7083 28.625 30.875C29.0625 29.0208 29.2812 26.8958 29.2812 24.5Z" fill="#C1A240"/>
<path d="M45.5 0.65625H62.4688C65.9479 0.65625 68.9375 1.17708 71.4375 2.21875C73.9583 3.26042 75.8958 4.80208 77.25 6.84375C78.6042 8.88542 79.2812 11.3958 79.2812 14.375C79.2812 16.8125 78.8646 18.9062 78.0312 20.6562C77.2188 22.3854 76.0625 23.8333 74.5625 25C73.0833 26.1458 71.3438 27.0625 69.3438 27.75L66.375 29.3125H51.625L51.5625 22H62.5312C64.1771 22 65.5417 21.7083 66.625 21.125C67.7083 20.5417 68.5208 19.7292 69.0625 18.6875C69.625 17.6458 69.9062 16.4375 69.9062 15.0625C69.9062 13.6042 69.6354 12.3438 69.0938 11.2812C68.5521 10.2188 67.7292 9.40625 66.625 8.84375C65.5208 8.28125 64.1354 8 62.4688 8H54.875V46.1562H45.5V0.65625ZM70.9375 46.1562L60.5625 25.875L70.4688 25.8125L80.9688 45.7188V46.1562H70.9375Z" fill="#C1A240"/>
<path d="M122.562 22.375V40.4062C121.854 41.2604 120.76 42.1875 119.281 43.1875C117.802 44.1667 115.896 45.0104 113.562 45.7188C111.229 46.4271 108.406 46.7812 105.094 46.7812C102.156 46.7812 99.4792 46.3021 97.0625 45.3438C94.6458 44.3646 92.5625 42.9375 90.8125 41.0625C89.0833 39.1875 87.75 36.8958 86.8125 34.1875C85.875 31.4583 85.4062 28.3438 85.4062 24.8438V22C85.4062 18.5 85.8542 15.3854 86.75 12.6562C87.6667 9.92708 88.9688 7.625 90.6562 5.75C92.3438 3.875 94.3542 2.44792 96.6875 1.46875C99.0208 0.489583 101.615 0 104.469 0C108.427 0 111.677 0.645833 114.219 1.9375C116.76 3.20833 118.698 4.97917 120.031 7.25C121.385 9.5 122.219 12.0833 122.531 15H113.438C113.208 13.4583 112.771 12.1146 112.125 10.9688C111.479 9.82292 110.552 8.92708 109.344 8.28125C108.156 7.63542 106.615 7.3125 104.719 7.3125C103.156 7.3125 101.76 7.63542 100.531 8.28125C99.3229 8.90625 98.3021 9.83333 97.4688 11.0625C96.6354 12.2917 96 13.8125 95.5625 15.625C95.125 17.4375 94.9062 19.5417 94.9062 21.9375V24.8438C94.9062 27.2188 95.1354 29.3229 95.5938 31.1562C96.0521 32.9688 96.7292 34.5 97.625 35.75C98.5417 36.9792 99.6667 37.9062 101 38.5312C102.333 39.1562 103.885 39.4688 105.656 39.4688C107.135 39.4688 108.365 39.3438 109.344 39.0938C110.344 38.8438 111.146 38.5417 111.75 38.1875C112.375 37.8125 112.854 37.4583 113.188 37.125V29.0625H104.625V22.375H122.562Z" fill="#C1A240"/>
<path d="M148.625 8.4375L136.25 46.1562H126.281L143.188 0.65625H149.531L148.625 8.4375ZM158.906 46.1562L146.5 8.4375L145.5 0.65625H151.906L168.906 46.1562H158.906ZM158.344 29.2188V36.5625H134.312V29.2188H158.344Z" fill="#C1A240"/>
<path d="M210.156 0.65625V46.1562H200.781L182.5 15.6562V46.1562H173.125V0.65625H182.5L200.812 31.1875V0.65625H210.156Z" fill="#C1A240h"/>
<path d="M228.281 0.65625V46.1562H218.938V0.65625H228.281Z" fill="#C1A240"/>
<path d="M269.969 38.8438V46.1562H237.719V38.8438H269.969ZM269.5 5.875L241.875 46.1562H235.281V40.7812L263.125 0.65625H269.5V5.875ZM266.281 0.65625V8H235.312V0.65625H266.281Z" fill="#C1A240"/>
<path d="M306.469 38.8438V46.1562H282.25V38.8438H306.469ZM285.312 0.65625V46.1562H275.938V0.65625H285.312ZM303.312 19.1875V26.3125H282.25V19.1875H303.312ZM306.438 0.65625V8H282.25V0.65625H306.438Z" fill="#C1A240"/>
</svg>
